<?xml version="1.0" encoding="utf-8"?>
<!-- Generator: Adobe Illustrator 25.1.0, SVG Export Plug-In . SVG Version: 6.00 Build 0)  -->
<svg version="1.1" id="圖層_1" xmlns="http://www.w3.org/2000/svg" xmlns:xlink="http://www.w3.org/1999/xlink" x="0px" y="0px"
	 viewBox="0 0 137.2 24" style="enable-background:new 0 0 137.2 24;" xml:space="preserve">
<style type="text/css">
	.st0{fill:#06C167;}
	.st1{fill:#142328;}
	.st2{font-family:'Inconsolata-BoldForPowerline';}
	.st3{font-size:32.2961px;}
</style>
<path class="st0" d="M100.5,14.8c0-2.9-2.3-5.2-5.3-5.2c-2.9,0-5.3,2.3-5.3,5.2s2.4,5.2,5.3,5.2S100.5,17.7,100.5,14.8 M104.8,6.3
	v17.1h-4.4v-1.5c-1.5,1.3-3.5,2-5.6,2c-5.2,0-9.2-4-9.2-9s4.1-9,9.2-9c2.1,0,4,0.7,5.6,2V6.3H104.8z M119.3,19.5H116
	c-1,0-1.7-0.4-1.7-1.3v-8h4.9V6.3h-4.9V1.4H110v4.9h-3.3v3.9h3.3v9.1c0,2.3,1.7,4.1,4.6,4.1h4.7L119.3,19.5L119.3,19.5z M129.3,23.8
	c5.1,0,7.9-2.4,7.9-5.6c0-2.3-1.7-4.1-5.2-4.8l-3.7-0.7c-2.2-0.4-2.9-0.8-2.9-1.6c0-1,1-1.7,3-1.7c2.1,0,3.6,0.6,4.1,2.4h4.4
	c-0.2-3.6-2.9-5.9-8.2-5.9c-4.6,0-7.8,1.9-7.8,5.5c0,2.5,1.8,4.1,5.6,4.9l4.2,0.9c1.7,0.3,2.1,0.7,2.1,1.4c0,1.1-1.2,1.7-3.3,1.7
	c-2.5,0-4-0.6-4.5-2.4h-4.4C121.2,21.4,123.9,23.8,129.3,23.8 M67.9,0.2h16.5v3.9h-12v5.6h11.7v3.8H72.4v5.7h12.1v3.9H67.9V0.2z"/>
<text transform="matrix(1 0 0 1 -1.0367 23.3243)" class="st1 st2 st3">Mzai</text>
</svg>
