<svg viewBox="0 0 240 120" xmlns="http://www.w3.org/2000/svg"><clipPath id="a"><path d="M10.47 91.47l.58 4.43h20.22l.51-4.43z"/></clipPath><clipPath id="b"><path d="M203.82 91.47l.58 4.43h20.21l.52-4.43z"/></clipPath><path d="M128.68 35.17h81.38V120h-81.38z" fill="#dc9b71"/><circle cx="169.37" cy="77.71" fill="#1d6046" r="18.75"/><path d="M158.82 16.17v19.12h-8.96V25z" fill="#c38358"/><path d="M179.9 16.18v8.84h-21.07v-8.84z" fill="#dc9b71"/><path d="M188.87 25.01v10.28h-8.97V16.17z" fill="#c38358"/><path d="M21.17 47.88h82.75v14H21.17z" fill="#538672"/><path d="M68.69 47.88a6.15 6.15 0 01-12.3 0" fill="#1d6046"/><path d="M21.17 67.27h82.75v14H21.17z" fill="#538672"/><path d="M68.69 67.27a6.15 6.15 0 01-12.3 0" fill="#1d6046"/><path d="M21.17 86.65h82.75v14H21.17z" fill="#538672"/><path d="M21.17 100.65h82.75v5.39H21.17zm0-19.39h82.75v5.39H21.17zm0-19.38h82.75v5.39H21.17zm0-19.42h82.75v5.39H21.17zm47.52 44.19a6.15 6.15 0 01-12.3 0" fill="#1d6046"/><path d="M21.17 106h82.75v14H21.17z" fill="#538672"/><path d="M68.69 106a6.15 6.15 0 01-12.3 0" fill="#1d6046"/><path d="M154.54 50.94v69.07H85.47V50.94z" fill="#fcd5a7"/><path d="M107.62 73.09h24.76v24.76h-24.76z" fill="#5fb709"/><path d="M111.31 35.17v15.76h-7.39v-8.48z" fill="#fcd5a7"/><path d="M128.68 35.17v7.29H111.3v-7.29z" fill="#dc9b71"/><path d="M136.08 42.46v8.47h-7.39V35.17z" fill="#fcd5a7"/><g fill="#fff"><path d="M184.5 120h-30.26a8.23 8.23 0 01-7.37-4.57l-4.55-9.14a.83.83 0 01.74-1.19h52.61a.82.82 0 01.73 1.18l-4.53 9.15a8.23 8.23 0 01-7.37 4.57z"/><path d="M198.91 106.75h-59.09a3.3 3.3 0 013.3-3.3h52.49a3.3 3.3 0 013.3 3.3zm-14.41-3.35h-30.26a8.23 8.23 0 01-7.37-4.57l-4.55-9.14a.83.83 0 01.74-1.19h52.61a.82.82 0 01.73 1.19l-4.53 9.14a8.23 8.23 0 01-7.37 4.57z"/><path d="M198.91 90.15h-59.09a3.3 3.3 0 013.3-3.3h52.49a3.3 3.3 0 013.3 3.3z"/><path d="M184.5 87h-30.26a8.23 8.23 0 01-7.37-4.57l-4.55-9.14a.83.83 0 01.74-1.19h52.61a.82.82 0 01.73 1.19l-4.53 9.14A8.23 8.23 0 01184.5 87z"/><path d="M198.91 73.7h-59.09a3.3 3.3 0 013.3-3.3h52.49a3.3 3.3 0 013.3 3.3z"/></g><path d="M19 114.54l3.5-30.27a1.23 1.23 0 011.22-1.09h8.85v-2h-8.85A3.26 3.26 0 0020.48 84L17 114.31z" fill="#f14e4e"/><path d="M10.47 91.47l.58 4.43h20.22l.51-4.43z" fill="#fff4e5"/><path d="M9.75 91.47h22.82l-.47-.76v-.95h-1.71l-.76-3.11H12.69l-.76 3.11h-1.71v.95z" fill="#d13434"/><path d="M11.05 95.9l.5 4.41 1.32 11.62.84 7.37a.94.94 0 00.94.84h13a1 1 0 00.95-.84l2.72-23.4z" fill="#ffbc48"/><path d="M16.61 117.84l2.787-24.27 2.017.231-2.787 24.27z" fill="#f79c20"/><g clip-path="url(#a)"><path d="M18.774 98.983l1.79-15.587 2.017.231-1.79 15.588z" fill="#f14e4e"/></g><path d="M28.5 109.26l-6 9.15a5.46 5.46 0 016-9.15zm-6.27-2.76h6.13v-6.13a6.12 6.12 0 00-6.13 6.13z" fill="#f79c20"/><path d="M212.37 114.54l3.48-30.27a1.22 1.22 0 011.22-1.09h8.85v-2h-8.85a3.26 3.26 0 00-3.24 2.82l-3.47 30.27z" fill="#f14e4e"/><path d="M203.82 91.47l.58 4.43h20.21l.52-4.43z" fill="#fff4e5"/><path d="M203.09 91.47h22.83l-.48-.76v-.95h-1.71l-.76-3.11h-16.93l-.76 3.11h-1.71v.95z" fill="#d13434"/><path d="M204.4 95.9l.5 4.41 1.32 11.62.83 7.37a1 1 0 00.95.84h13a.94.94 0 00.94-.84l2.72-23.4z" fill="#ffbc48"/><path d="M209.956 117.842l2.787-24.27 2.016.231-2.786 24.27z" fill="#f79c20"/><g clip-path="url(#b)"><path d="M212.119 98.985l1.79-15.587 2.016.231-1.79 15.588z" fill="#f14e4e"/></g><path d="M221.85 109.26l-6 9.15a5.46 5.46 0 116-9.15zm-6.27-2.76h6.13v-6.13a6.12 6.12 0 00-6.13 6.13z" fill="#f79c20"/></svg>