<?xml version="1.0" encoding="utf-8"?>
<!-- Generator: Adobe Illustrator 25.1.0, SVG Export Plug-In . SVG Version: 6.00 Build 0)  -->
<svg version="1.1" id="圖層_1" xmlns="http://www.w3.org/2000/svg" xmlns:xlink="http://www.w3.org/1999/xlink" x="0px" y="0px"
	 viewBox="0 0 146 24" style="enable-background:new 0 0 146 24;" xml:space="preserve">
<style type="text/css">
	.st0{fill:#06C167;}
	.st1{display:none;fill:#142328;}
	.st2{display:none;enable-background:new    ;}
	.st3{font-family:'ArialMT';}
	.st4{font-size:34.8269px;}
	.st5{fill:#FFFFFF;}
</style>
<path class="st0" d="M109.3,14.8c0-2.9-2.3-5.2-5.3-5.2c-2.9,0-5.3,2.3-5.3,5.2s2.4,5.2,5.3,5.2S109.3,17.7,109.3,14.8 M113.6,6.3
	v17.1h-4.4v-1.5c-1.5,1.3-3.5,2-5.6,2c-5.2,0-9.2-4-9.2-9s4.1-9,9.2-9c2.1,0,4,0.7,5.6,2V6.3H113.6z M128.1,19.5h-3.3
	c-1,0-1.7-0.4-1.7-1.3v-8h4.9V6.3h-4.9V1.4h-4.4v4.9h-3.3v3.9h3.3v9.1c0,2.3,1.7,4.1,4.6,4.1h4.7L128.1,19.5L128.1,19.5z
	 M138.1,23.8c5.1,0,7.9-2.4,7.9-5.6c0-2.3-1.7-4.1-5.2-4.8l-3.7-0.7c-2.2-0.4-2.9-0.8-2.9-1.6c0-1,1-1.7,3-1.7
	c2.1,0,3.6,0.6,4.1,2.4h4.4c-0.2-3.6-2.9-5.9-8.2-5.9c-4.6,0-7.8,1.9-7.8,5.5c0,2.5,1.8,4.1,5.6,4.9l4.2,0.9
	c1.7,0.3,2.1,0.7,2.1,1.4c0,1.1-1.2,1.7-3.3,1.7c-2.5,0-4-0.6-4.5-2.4h-4.4C130,21.4,132.7,23.8,138.1,23.8 M76.7,0.2h16.5v3.9h-12
	v5.6h11.7v3.8H81.2v5.7h12.1v3.9H76.7V0.2z"/>
<path class="st1" d="M68.8,9.5V6.4h-1.2c-1.9,0-3.3,0.9-4.1,2.2V6.5h-3.4v16.8h3.4v-9.5c0-2.6,1.6-4.3,3.8-4.3
	C67.3,9.5,68.8,9.5,68.8,9.5z M44.5,13.3c0.6-2.6,2.7-4.3,5.2-4.3s4.6,1.7,5.2,4.3H44.5z M49.8,6.2c-5,0-8.8,4-8.8,8.7
	c0,5,4,8.8,9.1,8.8c3.1,0,5.7-1.3,7.4-3.6L55,18.3c-1.3,1.7-3,2.5-4.9,2.5c-2.9,0-5.2-2-5.7-4.8h13.9v-1.1
	C58.3,9.9,54.7,6.2,49.8,6.2 M30.4,20.8c-3.3,0-5.9-2.6-5.9-5.8c0-3.3,2.7-5.8,5.9-5.8s5.9,2.6,5.9,5.8S33.6,20.8,30.4,20.8
	 M21.2,23.3h3.4v-2.1c1.5,1.6,3.7,2.5,6.1,2.5c5,0,9-3.9,9-8.8s-4-8.8-9-8.8c-2.4,0-4.5,1-6.1,2.5V0.2h-3.4V23.3z M9.2,20.6
	c3.3,0,5.8-2.5,5.8-6.1V0.2h3.5v23.1H15v-2.1c-1.6,1.6-3.8,2.5-6.2,2.5c-5,0-8.9-3.6-8.9-9V0.2h3.5v14.2C3.5,18.2,6,20.6,9.2,20.6"
	/>
<path class="st1" d="M75.4,56.2v-3.1h-1.2c-1.9,0-3.3,0.9-4.1,2.2v-2.1h-3.4V70h3.4v-9.5c0-2.6,1.6-4.3,3.8-4.3H75.4z M51.1,60.1
	c0.6-2.6,2.7-4.3,5.2-4.3s4.6,1.7,5.2,4.3H51.1z M56.4,52.9c-5,0-8.8,4-8.8,8.7c0,5,4,8.8,9.1,8.8c3.1,0,5.7-1.3,7.4-3.6L61.6,65
	c-1.3,1.7-3,2.5-4.9,2.5c-2.9,0-5.2-2-5.7-4.8h13.9v-1.1C64.9,56.6,61.3,52.9,56.4,52.9 M37,67.5c-3.3,0-5.9-2.6-5.9-5.8
	c0-3.3,2.7-5.8,5.9-5.8s5.9,2.6,5.9,5.8S40.2,67.5,37,67.5 M27.7,70h3.4v-2.1c1.5,1.6,3.7,2.5,6.1,2.5c5,0,9-3.9,9-8.8s-4-8.8-9-8.8
	c-2.4,0-4.5,1-6.1,2.5V47h-3.4V70z M15.8,67.3c3.3,0,5.8-2.5,5.8-6.1V47h3.5v23h-3.5v-2.1c-1.6,1.6-3.8,2.5-6.2,2.5
	c-5,0-8.9-3.6-8.9-9V47H10v14.2C10.1,64.9,12.5,67.3,15.8,67.3"/>
<text transform="matrix(1 0 0 1 -2.4766 -3.2915)" class="st2 st3 st4">Mzai</text>
<g>
	<path class="st5" d="M13.1,23.6H9.5L4,9v14.6h-4.1V0.2h4.3l7,20l6.7-20h4.3v23.4h-4.1V9L13.1,23.6z"/>
	<path class="st5" d="M25.7,7.4h12.7v2.5l-8,10.7h8.2v3H25.4v-2.4l8.1-10.7h-7.8V7.4z"/>
	<path class="st5" d="M41.7,9.6c0.8-0.8,1.9-1.4,3-1.8c1.2-0.4,2.4-0.6,3.7-0.6c0.9,0,1.7,0.1,2.5,0.3C51.7,7.7,52.4,8,53,8.4
		s1.1,0.9,1.5,1.6c0.4,0.6,0.6,1.4,0.6,2.3v7.2c0,0.3,0,0.6,0.1,0.9c0,0.2,0.1,0.4,0.2,0.6c0.1,0.1,0.2,0.2,0.4,0.3s0.3,0.1,0.6,0.1
		c0.1,0,0.2,0,0.4,0s0.4-0.1,0.6-0.1l0.4,1.7c-0.2,0.1-0.5,0.3-0.7,0.4s-0.5,0.2-0.8,0.3c-0.3,0.1-0.6,0.2-0.9,0.2
		C55.1,24,54.7,24,54.3,24c-0.7,0-1.4-0.2-1.9-0.5s-0.8-0.8-1-1.5c-0.4,0.4-0.9,0.7-1.3,1c-0.4,0.3-0.9,0.5-1.4,0.6
		s-0.9,0.3-1.4,0.3C46.8,24,46.4,24,46,24c-0.7,0-1.4-0.1-2-0.3c-0.6-0.2-1.1-0.5-1.5-0.8c-0.4-0.4-0.7-0.8-0.9-1.4
		s-0.3-1.2-0.3-1.9c0-0.8,0.1-1.6,0.4-2.2s0.6-1.2,1.1-1.6c0.4-0.4,1-0.8,1.6-1.1s1.3-0.5,2-0.7s1.5-0.3,2.3-0.4s1.6-0.1,2.5-0.1
		v-0.6c0-0.5-0.1-1-0.2-1.4c-0.1-0.4-0.4-0.7-0.6-0.9c-0.3-0.2-0.6-0.4-0.9-0.5c-0.4-0.1-0.8-0.2-1.2-0.2s-0.7,0-1.1,0.1
		c-0.3,0.1-0.7,0.2-1,0.3c-0.3,0.2-0.7,0.4-1.1,0.7c-0.4,0.3-0.8,0.6-1.2,1.1L41.7,9.6z M51.1,15.1c-1.2,0-2.1,0.2-2.8,0.4
		S47,16,46.5,16.3c-0.4,0.3-0.7,0.7-0.9,1.1s-0.3,0.9-0.3,1.4c0,0.4,0,0.8,0.1,1.1c0.1,0.3,0.2,0.5,0.4,0.7s0.4,0.3,0.7,0.4
		s0.5,0.1,0.9,0.1c0.3,0,0.6,0,0.9,0c0.3,0,0.6-0.1,0.9-0.2c0.3-0.1,0.6-0.2,0.9-0.4c0.3-0.1,0.6-0.3,1-0.6
		C51.1,19.9,51.1,15.1,51.1,15.1z"/>
	<path class="st5" d="M60.5,2.4c0-0.3,0.1-0.6,0.2-0.9C60.8,1.2,61,1,61.2,0.8s0.4-0.3,0.7-0.4s0.5-0.2,0.8-0.2s0.6,0.1,0.9,0.2
		c0.3,0.1,0.5,0.3,0.7,0.5s0.3,0.4,0.4,0.7s0.1,0.5,0.1,0.8s0,0.6-0.1,0.8c-0.1,0.3-0.2,0.5-0.4,0.7c-0.2,0.2-0.4,0.4-0.7,0.5
		s-0.5,0.2-0.9,0.2c-0.3,0-0.6-0.1-0.8-0.2c-0.3-0.1-0.5-0.3-0.7-0.5c-0.2-0.2-0.3-0.4-0.5-0.7C60.6,2.9,60.5,2.7,60.5,2.4z
		 M60.7,7.4h3.9v16.1h-3.9C60.7,23.5,60.7,7.4,60.7,7.4z"/>
</g>
</svg>
