<?xml version="1.0" encoding="utf-8"?>
<!-- Generator: Adobe Illustrator 25.1.0, SVG Export Plug-In . SVG Version: 6.00 Build 0)  -->
<svg version="1.1" id="圖層_1" xmlns="http://www.w3.org/2000/svg" xmlns:xlink="http://www.w3.org/1999/xlink" x="0px" y="0px"
	 viewBox="0 0 160.4 160.4" style="enable-background:new 0 0 160.4 160.4;" xml:space="preserve">
<style type="text/css">
	.st0{fill:#142328;}
	.st1{fill:#06C167;}
	.st2{fill:#FFFFFF;}
</style>
<path class="st0" d="M126.2,160.4H35c-19.2,0-35-15.8-35-35V34.1c0-19.2,15.8-35,35-35h91.2c19.2,0,35,15.8,35,35v91.2
	C161.2,144.6,145.5,160.4,126.2,160.4z"/>
<path class="st1" d="M78.1,107.6c0-4.6-3.7-8.3-8.4-8.3c-4.6,0-8.4,3.7-8.4,8.3c0,4.6,3.8,8.3,8.4,8.3
	C74.3,115.8,78.1,112.2,78.1,107.6 M84.9,94.1v27.2h-7v-2.4c-2.4,2.1-5.6,3.2-8.9,3.2c-8.3,0-14.6-6.4-14.6-14.3S60.9,93.4,69,93.4
	c3.3,0,6.4,1.1,8.9,3.2v-2.5H84.9z M107.9,115h-5.2c-1.6,0-2.7-0.6-2.7-2.1v-12.7h7.8v-6.2H100v-7.8h-7v7.8h-5.2v6.2H93v14.4
	c0,3.7,2.7,6.5,7.3,6.5h7.5L107.9,115L107.9,115z M123.8,121.8c8.1,0,12.5-3.8,12.5-8.9c0-3.7-2.7-6.5-8.3-7.6l-5.9-1.1
	c-3.5-0.6-4.6-1.3-4.6-2.5c0-1.6,1.6-2.7,4.8-2.7c3.3,0,5.7,1,6.5,3.8h7c-0.3-5.7-4.6-9.4-13-9.4c-7.3,0-12.4,3-12.4,8.7
	c0,4,2.9,6.5,8.9,7.8l6.7,1.4c2.7,0.5,3.3,1.1,3.3,2.2c0,1.7-1.9,2.7-5.2,2.7c-4,0-6.4-1-7.1-3.8h-7
	C110.9,118,115.2,121.8,123.8,121.8 M26.3,84.4h26.2v6.2H33.4v8.9H52v6H33.4v9.1h19.2v6.2H26.3V84.4z"/>
<g>
	<path class="st2" d="M47.5,74.9h-5.7L33,51.7v23.2h-6.5V37.7h6.8l11.1,31.8l10.7-31.8H62v37.2h-6.5V51.7L47.5,74.9z"/>
	<path class="st2" d="M67.5,49.2h20.2v4L75,70.2h13v4.8H67v-3.8l12.9-17H67.5V49.2z"/>
	<path class="st2" d="M93,52.7c1.3-1.3,3-2.2,4.8-2.9c1.9-0.6,3.8-1,5.9-1c1.4,0,2.7,0.2,4,0.5c1.3,0.3,2.4,0.8,3.3,1.4
		s1.8,1.4,2.4,2.5c0.6,1,1,2.2,1,3.7v11.5c0,0.5,0,1,0.2,1.4c0,0.3,0.2,0.6,0.3,1c0.2,0.2,0.3,0.3,0.6,0.5c0.3,0.2,0.5,0.2,1,0.2
		c0.2,0,0.3,0,0.6,0c0.3,0,0.6-0.2,1-0.2l0.6,2.7c-0.3,0.2-0.8,0.5-1.1,0.6s-0.8,0.3-1.3,0.5c-0.5,0.2-1,0.3-1.4,0.3
		c-0.5,0.2-1.1,0.2-1.8,0.2c-1.1,0-2.2-0.3-3-0.8c-0.8-0.5-1.3-1.3-1.6-2.4c-0.6,0.6-1.4,1.1-2.1,1.6c-0.6,0.5-1.4,0.8-2.2,1
		c-0.8,0.2-1.4,0.5-2.2,0.5c-0.8,0.2-1.4,0.2-2.1,0.2c-1.1,0-2.2-0.2-3.2-0.5s-1.8-0.8-2.4-1.3c-0.6-0.6-1.1-1.3-1.4-2.2
		c-0.3-1-0.5-1.9-0.5-3c0-1.3,0.2-2.5,0.6-3.5c0.5-1,1-1.9,1.8-2.5c0.6-0.6,1.6-1.3,2.5-1.8c1-0.5,2.1-0.8,3.2-1.1s2.4-0.5,3.7-0.6
		s2.5-0.2,4-0.2v-1c0-0.8-0.2-1.6-0.3-2.2c-0.2-0.6-0.6-1.1-1-1.4c-0.5-0.3-1-0.6-1.4-0.8c-0.6-0.2-1.3-0.3-1.9-0.3
		c-0.6,0-1.1,0-1.8,0.2c-0.5,0.2-1.1,0.3-1.6,0.5c-0.5,0.3-1.1,0.6-1.8,1.1c-0.6,0.5-1.3,1-1.9,1.8L93,52.7z M107.9,61.4
		c-1.9,0-3.3,0.3-4.5,0.6s-2.1,0.8-2.9,1.3c-0.6,0.5-1.1,1.1-1.4,1.8s-0.5,1.4-0.5,2.2c0,0.6,0,1.3,0.2,1.8c0.2,0.5,0.3,0.8,0.6,1.1
		c0.3,0.3,0.6,0.5,1.1,0.6c0.5,0.2,0.8,0.2,1.4,0.2c0.5,0,1,0,1.4,0c0.5,0,1-0.2,1.4-0.3c0.5-0.2,1-0.3,1.4-0.6c0.5-0.2,1-0.5,1.6-1
		C107.9,69,107.9,61.4,107.9,61.4z"/>
	<path class="st2" d="M122.9,41.2c0-0.5,0.2-1,0.3-1.4c0.2-0.5,0.5-0.8,0.8-1.1s0.6-0.5,1.1-0.6c0.5-0.2,0.8-0.3,1.3-0.3
		c0.5,0,1,0.2,1.4,0.3c0.5,0.2,0.8,0.5,1.1,0.8c0.3,0.3,0.5,0.6,0.6,1.1s0.2,0.8,0.2,1.3s0,1-0.2,1.3c-0.2,0.5-0.3,0.8-0.6,1.1
		c-0.3,0.3-0.6,0.6-1.1,0.8s-0.8,0.3-1.4,0.3c-0.5,0-1-0.2-1.3-0.3c-0.5-0.2-0.8-0.5-1.1-0.8c-0.3-0.3-0.5-0.6-0.8-1.1
		C123,42,122.9,41.7,122.9,41.2z M123.2,49.2h6.2v25.6h-6.2C123.2,74.8,123.2,49.2,123.2,49.2z"/>
</g>
</svg>
